<svg xmlns="http://www.w3.org/2000/svg" viewBox="0 0 640 480">
  <style>
    text { font-family: -apple-system, BlinkMacSystemFont, 'Segoe UI', Roboto, 'Apple SD Gothic Neo', 'Malgun Gothic', sans-serif; }
  </style>
  <defs>
    <filter id="sh" x="-30%" y="-30%" width="160%" height="160%">
      <feDropShadow dx="0" dy="12" stdDeviation="16" flood-color="#1b1b2e" flood-opacity="0.18"/>
    </filter>
  </defs>

  <rect width="640" height="480" fill="#eceef1"/>

  <!-- browser window -->
  <rect x="28" y="22" width="584" height="436" rx="14" fill="#f4f5f7" filter="url(#sh)"/>
  <path d="M28 36 a14 14 0 0 1 14 -14 h556 a14 14 0 0 1 14 14 v22 h-584 z" fill="#e6e8eb"/>
  <circle cx="48" cy="33" r="4.5" fill="#ff5f57"/>
  <circle cx="64" cy="33" r="4.5" fill="#febc2e"/>
  <circle cx="80" cy="33" r="4.5" fill="#28c840"/>
  <rect x="210" y="25" width="220" height="16" rx="8" fill="#f4f5f7"/>
  <text x="320" y="37" text-anchor="middle" fill="#9aa0a6" font-size="10">dongne.app</text>

  <!-- app header -->
  <rect x="28" y="58" width="584" height="46" fill="#ffffff"/>
  <line x1="28" y1="104" x2="612" y2="104" stroke="#e5e7eb"/>
  <circle cx="56" cy="81" r="10" fill="#ff7a3d"/>
  <text x="74" y="86" fill="#2b2f36" font-size="14" font-weight="800">동네생활</text>
  <rect x="196" y="68" width="240" height="26" rx="13" fill="#f1f3f5"/>
  <text x="214" y="85" fill="#9aa0a6" font-size="11">우리 동네 소식 검색</text>
  <rect x="500" y="66" width="62" height="30" rx="8" fill="#ff7a3d"/>
  <text x="531" y="86" text-anchor="middle" fill="#ffffff" font-size="11.5" font-weight="700">글쓰기</text>
  <circle cx="586" cy="81" r="13" fill="#e2e5e9"/>

  <!-- sidebar -->
  <rect x="44" y="124" width="140" height="200" rx="12" fill="#ffffff" stroke="#e9ebee"/>
  <text x="62" y="150" fill="#2b2f36" font-size="11" font-weight="800">카테고리</text>
  <rect x="56" y="162" width="116" height="26" rx="8" fill="#fff1e9"/>
  <text x="70" y="179" fill="#ff7a3d" font-size="11" font-weight="700">전체</text>
  <text x="70" y="207" fill="#5f646b" font-size="11">공동구매</text>
  <text x="70" y="231" fill="#5f646b" font-size="11">나눔·무료</text>
  <text x="70" y="255" fill="#5f646b" font-size="11">생활정보</text>
  <text x="70" y="279" fill="#5f646b" font-size="11">동네질문</text>
  <text x="70" y="303" fill="#5f646b" font-size="11">분실·실종</text>

  <!-- feed -->
  <g>
    <rect x="200" y="124" width="396" height="60" rx="12" fill="#ffffff" stroke="#e9ebee"/>
    <rect x="216" y="136" width="52" height="18" rx="9" fill="#fff1e9"/>
    <text x="242" y="149" text-anchor="middle" fill="#ff7a3d" font-size="9.5" font-weight="700">공동구매</text>
    <text x="216" y="169" fill="#20242a" font-size="12.5" font-weight="700">생수 2L 24병 같이 시키실 분 구해요</text>
    <text x="284" y="169" fill="#20242a" font-size="12.5" font-weight="700"> </text>
    <text x="216" y="178" fill="#9aa0a6" font-size="9.5">역삼동 · 12분 전 · ♥ 8 · 💬 5</text>
  </g>
  <g>
    <rect x="200" y="192" width="396" height="60" rx="12" fill="#ffffff" stroke="#e9ebee"/>
    <rect x="216" y="204" width="44" height="18" rx="9" fill="#e9f7ee"/>
    <text x="238" y="217" text-anchor="middle" fill="#1e9e54" font-size="9.5" font-weight="700">나눔</text>
    <text x="216" y="237" fill="#20242a" font-size="12.5" font-weight="700">안 쓰는 책상·의자 나눔합니다 (무료)</text>
    <text x="216" y="246" fill="#9aa0a6" font-size="9.5">삼성동 · 1시간 전 · ♥ 14 · 💬 3</text>
  </g>
  <g>
    <rect x="200" y="260" width="396" height="60" rx="12" fill="#ffffff" stroke="#e9ebee"/>
    <rect x="216" y="272" width="56" height="18" rx="9" fill="#eef1ff"/>
    <text x="244" y="285" text-anchor="middle" fill="#4054d6" font-size="9.5" font-weight="700">동네질문</text>
    <text x="216" y="305" fill="#20242a" font-size="12.5" font-weight="700">근처 24시간 헬스장 추천 부탁드려요</text>
    <text x="216" y="314" fill="#9aa0a6" font-size="9.5">대치동 · 3시간 전 · ♥ 6 · 💬 11</text>
  </g>
  <g>
    <rect x="200" y="328" width="396" height="52" rx="12" fill="#ffffff" stroke="#e9ebee"/>
    <rect x="216" y="338" width="52" height="18" rx="9" fill="#fdeef0"/>
    <text x="242" y="351" text-anchor="middle" fill="#d81b83" font-size="9.5" font-weight="700">생활정보</text>
    <text x="216" y="366" fill="#20242a" font-size="12.5" font-weight="700">분리수거 요일 바뀐 거 아시나요?</text>
  </g>

  <!-- bottom bar -->
  <line x1="200" y1="398" x2="596" y2="398" stroke="#e5e7eb"/>
  <text x="200" y="424" fill="#9aa0a6" font-size="10">1 / 24 페이지</text>
  <rect x="520" y="410" width="76" height="26" rx="8" fill="#f1f3f5"/>
  <text x="558" y="427" text-anchor="middle" fill="#5f646b" font-size="10.5" font-weight="600">더 보기</text>
</svg>
